<svg xmlns="http://www.w3.org/2000/svg" width="261" height="174" fill="none" viewBox="0 0 261 174"><path fill="#454444" d="M260.559 156.928c-.172.16-.345.339-.511.518v-.39c-7.734 11.568-10.974 4.985-11.684-5.101-.741-8.155 5.439-24.332 1.63-24.946-.467-.019-1.317-.032-1.604.384a111.976 111.976 0 0 1-9.345 15.991c-7.069 9.038-16.164 21.879-28.091 24.263-10.974-2.845 27.542-50.896 35.435-51.063 1.95.007 2.276 4.538 2.276 5.299-.02.952-.589 3.285-.154 4.449h.301c6.576 2.607 8.283-20.319-6.744-13.448-13.019 5.784-33.076 31.389-37.352 47.617-11.748 6.404-6.967-27.056-11.345-37.007v-.013h-.006c-6.155-13.62-20.057 16.733-22.109 19.386-3.566 5.17-6.992 10.757-12.31 14.483-2.007-5.222-.185-17.577-.275-23.112.058-1.969-.115-13.032-5.982-12.4-5.446.665-10.163 12.534-13.422 18.293 0-.006-.007-.013-.013-.026-.038.173-.147.326-.224.486a.906.906 0 0 0-.179.154c.019.025.045.038.071.057-.211.409-.41.831-.633 1.234 0 0 .006 0 .013-.007-5.804 9.728-9.211 21.949-20.012 24.167-2.819-.077-3.701-2.212-7.504-3.803.006.012.019.025.025.038a.909.909 0 0 0-.383-.045c0 .007.006.013.013.02 3.036 5.381 7.497 6.442 12.655 4.716 13.282-5.624 16.925-29.043 28.506-39.077 1.074 3.489-.485 18.471-.358 22.351 2.327 36.911 29.779-14.439 36.701-23.847 2.013 5.759.716 13.825 1.074 19.846.166 5.707 5.752 22.933 15.007 19.411 5.036 21.744 32.379-12.035 37.64-18.625-1.509 23.463 18.324 21.514 18.893 9.734v.013Z"></path><path fill="#3EABCD" fill-rule="evenodd" d="M107.698 162.517c-7.727-1.131-4.851-28.161-8.468-38.432a.177.177 0 0 0 .019-.109h-.058c-7.248-17.717-25.918 31.478-34.425 33.479-2.02-5.382-.243-17.487-.306-23.157.313-2.997-.902-15.793-8.584-11.728-9.351 4.819-14.982 22.358-21.47 30.315-14.956 16.477-36.278 19.954-23.846-8.494 14.834 10.009 38.457-24.748 23.706-32.067-18.433-3.758-52.814 55.818-20.932 58.886 25.72-.486 30.57-29.031 43.686-43.099l.038.013c1.425 5.28-.6 20.018-.102 25.554 4.544 32.028 31.267-21.131 36.662-26.864 1.483 4.576 1.553 9.76 1.464 14.036.147 4.02 1.124 17.679 5.95 22.69 2.014 2.108 4.407 6.633 15.961-5.249 8.023-9.216 14.34-15.323 19.309-26.12-7.837 13.173-17.424 23.006-28.604 30.346Zm-74.174-42.868c.013-.147.026-.3.026-.441h-.006c-.646-8.194-12.521 8.053-17.584 14.867a.247.247 0 0 1 .039.044c-.032.007-.064.032-.096.045-3.86 6.059-8.252 10.233-.658 9.504 8.34-3.47 16.445-15.218 18.28-24.006-.032-.019-.058-.032-.058-.032.02.006.038.019.057.019Z" clip-rule="evenodd"></path><path fill="#454444" d="M149.871 22.983c1.886 1.095 3.646 3.227 2.187 5.346-.178.364-.51.79-.289 1.186 1.598.186 2.286-2.562 1.942-3.827-.918-4.473-6.121-4.947-8.763-8.458-5.674-7.506 3.99-17.696 11.962-14.627 2.574 1.174 3.966 4.547 6.441 5.888.835.403 2.124.767 2.286 1.253.099.3-.158.629-.301.933-1.249 2.136 1.19 2.1.376 3.31-.198 1.008 1.779.79 1.522 2.242-.205 2.519-3.705 1.02-4.606 5.48-.194 2.476-.89 7.644.367 9.748 1.728.45.435-6.358.708-7.576-.941-4.496 3.511-4.453 5.647-6.822.747-1.42-.736-2.554-.661-3.962-.083-.537-1.036-.751-1.281-1.221-.324-.68.498-1.365.55-2.033.055-1.329-2.701-2.376-3.879-3.136-3.883-4.88-3.073-6.26-10.443-6.315-14.406.467-18.332 17.237-3.765 22.59Zm13.757-1.004a.44.44 0 0 0-.051.087c0-.127 0-.253.019-.372.012.008.024.012.032.02v.269-.004Z"></path><path fill="#454444" d="M166.981 33.754c-2.202-1.23-4.373-2.87-6.342-2.313.007 0 .019.008.027.008a.5.5 0 0 0-.126.11c.071.017.146.04.217.06v.19c3.515.609 7.217 3.701 9.826 6.461-.019-.008-.043-.016-.059-.024 11.535 21.52-11.487 43.121-17.533 63.513.087-.031.19-.063.289-.103-.02.08-.048.163-.068.242.044-.091.091-.178.139-.269 6.781-12.891 14.82-26.668 20.989-39.673 3.646-8.988 2.25-23.136-7.359-28.202Z"></path><path fill="#454444" d="m86.315 68.318.004-.004v.008c.106-.13.217-.265.332-.411l-.107.308c2.317-3.816 5.9-6.346 9.973-8.003 4.235-2.539 8.659-5.595 12.997-7.956 6.299-4.12 14.101-3.132 20.562-6.718 5.908-4.05 25.881-19.985 30.412-8.976 0 0 0-.008.004-.008l.008.008v-.008.008c.146-.111.111-.198.253-.21.514-4.397-4.081-5.741-7.481-5.144l.012.02c-8.451 1.336-16.889 5.891-23.394 11.502-7.386 5.343-16.576 3.93-23.836 9.095-.02 0-.039-.004-.059 0l.016.028c-7.086 4.745-17.486 7.074-19.7 16.457l.004.004Z"></path><path fill="#454444" d="M149.677 43.759c2.812-.467 4.299-.507 7.248.514a.188.188 0 0 1 .032.063l.016-.051.407.146v-.04l.194.048V44.2c.02 0 .039.008.059.012l-.059-.059v-.075a3.623 3.623 0 0 0-.751-.621l.019-.024-.023.02c-.123-.075-.246-.15-.376-.213v-.004c-16.604-4.394-35.122 13.365-53.746 14.935-4.504.114-6.382 2.894-7.114 7.173-.011.012-.027.027-.04.043l.024.024c-.031.138-.059.277-.106.407h-.012l.004.016c-.139.431-.253.827-.368 1.21-.004 0-.008-.004-.012-.008-.253.795-.162.921-.3 1.483l.075-.127v.23c.96-1.444 1.803-3.488 2.977-4.943-.008 0-.011-.008-.02-.008 1.38-2.06 3.599-3.448 6.07-3.693a.53.53 0 0 0 .099.083c0-.032.036-.071.075-.11.107-.017.218-.032.325-.052-.083.099.265.087.13-.02.087-.016.174-.028.265-.044 0 .008.004.016 0 .02v-.02c15.501-1.783 29.752-11.233 44.117-15.923l.024.02s0-.016-.004-.024c.253-.06.506-.107.759-.15h.012Z"></path><path fill="#3EABCD" d="M146.269 77.642c-13.757 9.178-8.162 19.21-7.335 30.357.737 8.684-.64 20.493-4.412 28.231-.128.28-.26.542-.398.785.136-.257.268-.518.398-.785 2.567-5.624 3.113-18.446 1.873-27.452-2.113-14.118-5.568-24.362 5.508-31.828a.694.694 0 0 1-.039-.134l.103.087c.059-.048.114-.091.174-.135v-.11c0 .039.035.05.075.055.676-.518 1.364-1.02 2.048-1.526-.012 0-.02-.008-.032-.008 11.128-6.782 11.685-18.593 6.794-29.46v-.268h.32v-.245c3.326-.74 4.907 3.732 5.777 7.631l.016.012c0 .008-.008.008-.008.016 2.78 10.862-2.234 19.64-10.862 24.777Z"></path></svg>